<?xml version="1.0" encoding="utf-8"?>
<!-- Generator: Adobe Illustrator 25.3.1, SVG Export Plug-In . SVG Version: 6.00 Build 0)  -->
<svg version="1.1"
	 id="Layer_1" xmlns:cc="http://web.resource.org/cc/" xmlns:dc="http://purl.org/dc/elements/1.1/" xmlns:rdf="http://www.w3.org/1999/02/22-rdf-syntax-ns#"
	 xmlns="http://www.w3.org/2000/svg" xmlns:xlink="http://www.w3.org/1999/xlink" x="0px" y="0px" viewBox="0 0 324.9 228.6"
	 style="enable-background:new 0 0 324.9 228.6;" xml:space="preserve">
<style type="text/css">
	.st0{fill:url(#SVGID_1_);}
</style>
<g id="text__x26__logo">
	
		<linearGradient id="SVGID_1_" gradientUnits="userSpaceOnUse" x1="100.8564" y1="235.6062" x2="269.3701" y2="6.245" gradientTransform="matrix(1 0 0 -1 0 267.5237)">
		<stop  offset="0.1319" style="stop-color:#FFE8A7"/>
		<stop  offset="0.4725" style="stop-color:#FFD13B"/>
	</linearGradient>
	<path class="st0" d="M267.9,9.5H54.8c-21.8,0-39.6,14.3-39.6,31.9v145.8c0,17.6,17.7,31.9,39.6,31.9h213.1
		c21.9,0,39.6-14.3,39.6-31.9V41.4C307.5,23.8,289.8,9.5,267.9,9.5z"/>
	<path d="M267.9,9.5H54.8c-21.8,0-39.6,14.3-39.6,31.9v145.8c0,17.6,17.7,31.9,39.6,31.9h213.1c21.9,0,39.6-14.3,39.6-31.9V41.4
		C307.5,23.8,289.8,9.5,267.9,9.5z M18.9,41.4c0-16,16.1-28.9,35.9-28.9h76.4c-15.8,4.8-23.1,15.3-23.6,30.4v24.3H18.9V41.4z
		 M18.9,70.2h88.7v42.6H18.9C18.9,112.8,18.9,70.2,18.9,70.2z M18.9,115.7h88.7v42.6H18.9V115.7z M54.8,216
		c-19.8,0-35.9-12.9-35.9-28.9v-25.9h92.4V45.9h100.1v136.7H109.5c-2.5,0-2.5,3,0,3h101.9c-0.6,19.5-13,30.4-43.4,30.4
		C167.9,216,54.8,216,54.8,216z M303.8,187.1c0,16-16.1,28.9-35.9,28.9h-76.4c15.8-4.8,23.1-15.3,23.6-30.4v-24.3h88.7
		C303.8,161.3,303.8,187.1,303.8,187.1z M303.8,158.3h-88.7v-42.6h88.7V158.3z M303.8,112.8h-88.7V70.2h88.7V112.8z M303.8,67.2
		h-88.7V42.9H111.3c0.6-19.5,13.1-30.4,43.4-30.4h113.2c19.8,0,35.9,12.9,35.9,28.9L303.8,67.2L303.8,67.2z"/>
</g>
</svg>
