<svg xmlns="http://www.w3.org/2000/svg" width="275.026" height="190" viewBox="0 0 275.026 190">
  <g id="Group_1" data-name="Group 1" transform="translate(-600 -425)">
    <g id="Rectangle_1" data-name="Rectangle 1" transform="translate(707 472)" fill="#e6e1e1" stroke="#707070" stroke-width="2">
      <rect width="166" height="108" rx="11" stroke="none"/>
      <rect x="1" y="1" width="164" height="106" rx="10" fill="none"/>
    </g>
    <g id="Path_1" data-name="Path 1" transform="translate(819 507)" fill="#fff">
      <path d="M 46.89742279052734 40.56123733520508 C 43.92245483398438 40.56123733520508 40.39511489868164 40.03850555419922 36.98392486572266 39.53298568725586 C 33.55701446533203 39.02513885498047 30.01342391967773 38.49999618530273 27.00000381469727 38.49999618530273 C 12.38785457611084 38.49999618530273 0.5000046491622925 29.97663688659668 0.5000046491622925 19.49999809265137 C 0.5000046491622925 14.49939727783203 3.231764554977417 9.860637664794922 8.192074775695801 6.438217163085938 C 13.15282440185547 3.015477180480957 19.83228492736816 1.130497217178345 27.00000381469727 1.130497217178345 C 29.39417457580566 1.130497217178345 32.44281387329102 0.7735071778297424 35.67044448852539 0.3955571949481964 C 39.30957412719727 -0.03058280982077122 43.07260513305664 -0.4712328016757965 46.38934326171875 -0.4712328016757965 C 49.86737442016602 -0.4712328016757965 52.26293563842773 0.02305718883872032 53.71292495727539 1.039867162704468 C 56.56373596191406 3.036387205123901 55.43646621704102 8.456377029418945 54.44189453125 13.23833751678467 C 53.95751571655273 15.56724739074707 53.50000381469727 17.76698684692383 53.50000381469727 19.49999809265137 C 53.50000381469727 20.78988647460938 53.79265594482422 22.66205787658691 54.13151550292969 24.82983779907227 C 54.89411544799805 29.70843696594238 55.93853378295898 36.38991546630859 53.64922332763672 38.6436882019043 C 52.34032440185547 39.93408584594727 50.13187408447266 40.56123733520508 46.89742279052734 40.56123733520508 Z" stroke="none"/>
      <path d="M 46.38934326171875 0.02876663208007812 C 43.10177612304688 0.02876663208007812 39.35348510742188 0.4676856994628906 35.72859191894531 0.8921585083007812 C 32.48606491088867 1.271858215332031 29.42335510253906 1.630496978759766 27.00000381469727 1.630496978759766 C 19.93271636962891 1.630496978759766 13.35410308837891 3.484066009521484 8.476024627685547 6.849758148193359 C 3.655033111572266 10.17605781555176 0.9999961853027344 14.66866683959961 0.9999961853027344 19.49999809265137 C 0.9999961853027344 29.700927734375 12.66355514526367 37.99999618530273 27.00000381469727 37.99999618530273 C 30.05028533935547 37.99999618530273 33.61239624023438 38.52788543701172 37.05722427368164 39.03838729858398 C 40.45049285888672 39.54125595092773 43.95929336547852 40.06123733520508 46.89741516113281 40.06123733520508 C 49.99390411376953 40.06123733520508 52.0875358581543 39.48116683959961 53.29844665527344 38.28737640380859 C 54.17780303955078 37.42166900634766 54.59683609008789 35.61831665039062 54.54389572143555 32.92742919921875 C 54.4938850402832 30.3856372833252 54.03891372680664 27.47502708435059 53.63749313354492 24.90705680847168 C 53.29542541503906 22.71867752075195 52.99999618530273 20.82873725891113 52.99999618530273 19.49999809265137 C 52.99999618530273 17.71553802490234 53.46259307861328 15.4913272857666 53.95235443115234 13.13651657104492 C 54.91549301147461 8.505695343017578 56.00714492797852 3.257007598876953 53.42584609985352 1.449245452880859 C 52.06280517578125 0.493408203125 49.76114654541016 0.02876663208007812 46.38934326171875 0.02876663208007812 M 46.38934326171875 -0.9712333679199219 C 49.55312347412109 -0.9712333679199219 52.28672790527344 -0.5709457397460938 53.99999618530273 0.6304969787597656 C 58.55810546875 3.822689056396484 53.99999618530273 14.1690673828125 53.99999618530273 19.49999809265137 C 53.99999618530273 23.80781745910645 57.48393630981445 35.57013702392578 53.99999618530273 38.99999618530273 C 49.29568481445312 43.63778686523438 35.94701385498047 38.99999618530273 27.00000381469727 38.99999618530273 C 12.08831405639648 38.99999618530273 -3.814697265625e-06 30.26954650878906 -3.814697265625e-06 19.49999809265137 C -3.814697265625e-06 8.730447769165039 12.08831405639648 0.6304969787597656 27.00000381469727 0.6304969787597656 C 32.01996612548828 0.6304969787597656 40.06294631958008 -0.9712333679199219 46.38934326171875 -0.9712333679199219 Z" stroke="none" fill="#707070"/>
    </g>
    <g id="Ellipse_1" data-name="Ellipse 1" transform="translate(840 520)" fill="#8b7474" stroke="#707070" stroke-width="1">
      <circle cx="7" cy="7" r="7" stroke="none"/>
      <circle cx="7" cy="7" r="6.5" fill="none"/>
    </g>
    <line id="Line_1" data-name="Line 1" y1="26" x2="85" transform="translate(769.5 446.5)" fill="none" stroke="#8b7474" stroke-width="2"/>
    <line id="Line_2" data-name="Line 2" x1="8" y1="26" transform="translate(854 446)" fill="none" stroke="#8b7474" stroke-width="2"/>
    <line id="Line_3" data-name="Line 3" y1="38" x2="79" transform="translate(740.5 434.5)" fill="none" stroke="#8b7474" stroke-width="2"/>
    <line id="Line_4" data-name="Line 4" x1="10" y1="19" transform="translate(819 434.5)" fill="none" stroke="#8b7474" stroke-width="2"/>
    <text id="Wallet" transform="translate(714 540)" fill="#707070" font-size="37" font-family="ShreeDev0714-Bold, 'Shree Devanagari \37 14'" font-weight="700" style="mix-blend-mode: color-dodge;isolation: isolate"><tspan x="0" y="0">Wallet</tspan></text>
    <text id="V" transform="translate(600 575)" fill="#8b7474" font-size="170" font-family="PTMono-Regular, PT Mono"><tspan x="0" y="0">V</tspan></text>
    <line id="Line_6" data-name="Line 6" y1="9" x2="5" transform="translate(718.5 571)" fill="none" stroke="#707070" stroke-width="1"/>
    <line id="Line_7" data-name="Line 7" y1="9" x2="5" transform="translate(726.5 571)" fill="none" stroke="#707070" stroke-width="1"/>
    <line id="Line_8" data-name="Line 8" y1="9" x2="5" transform="translate(742.5 571)" fill="none" stroke="#707070" stroke-width="1"/>
    <line id="Line_9" data-name="Line 9" y1="9" x2="5" transform="translate(750.5 571)" fill="none" stroke="#707070" stroke-width="1"/>
    <line id="Line_10" data-name="Line 10" y1="9" x2="5" transform="translate(758.5 571)" fill="none" stroke="#707070" stroke-width="1"/>
    <line id="Line_11" data-name="Line 11" y1="9" x2="5" transform="translate(766.5 571)" fill="none" stroke="#707070" stroke-width="1"/>
    <line id="Line_12" data-name="Line 12" y1="9" x2="5" transform="translate(734.5 571)" fill="none" stroke="#707070" stroke-width="1"/>
    <line id="Line_13" data-name="Line 13" y1="9" x2="5" transform="translate(774.5 571)" fill="none" stroke="#707070" stroke-width="1"/>
    <line id="Line_14" data-name="Line 14" y1="9" x2="5" transform="translate(782.5 571)" fill="none" stroke="#707070" stroke-width="1"/>
    <line id="Line_15" data-name="Line 15" y1="9" x2="5" transform="translate(784.5 472.5)" fill="none" stroke="#707070" stroke-width="1"/>
    <line id="Line_16" data-name="Line 16" y1="9" x2="5" transform="translate(792.5 472.5)" fill="none" stroke="#707070" stroke-width="1"/>
    <line id="Line_17" data-name="Line 17" y1="9" x2="5" transform="translate(808.5 472.5)" fill="none" stroke="#707070" stroke-width="1"/>
    <line id="Line_18" data-name="Line 18" y1="9" x2="5" transform="translate(816.5 472.5)" fill="none" stroke="#707070" stroke-width="1"/>
    <line id="Line_19" data-name="Line 19" y1="9" x2="5" transform="translate(824.5 472.5)" fill="none" stroke="#707070" stroke-width="1"/>
    <line id="Line_20" data-name="Line 20" y1="9" x2="5" transform="translate(832.5 472.5)" fill="none" stroke="#707070" stroke-width="1"/>
    <line id="Line_21" data-name="Line 21" y1="9" x2="5" transform="translate(800.5 472.5)" fill="none" stroke="#707070" stroke-width="1"/>
    <line id="Line_22" data-name="Line 22" y1="9" x2="5" transform="translate(840.5 472.5)" fill="none" stroke="#707070" stroke-width="1"/>
    <line id="Line_23" data-name="Line 23" y1="9" x2="5" transform="translate(848.5 472.5)" fill="none" stroke="#707070" stroke-width="1"/>
  </g>
</svg>
