<?xml version="1.0" encoding="utf-8"?>
<!-- Generator: Adobe Illustrator 25.3.1, SVG Export Plug-In . SVG Version: 6.00 Build 0)  -->
<svg version="1.1" id="Layer_1" xmlns="http://www.w3.org/2000/svg" xmlns:xlink="http://www.w3.org/1999/xlink" x="0px" y="0px"
	 viewBox="0 0 349.7 135.7" style="enable-background:new 0 0 349.7 135.7;" xml:space="preserve">
<style type="text/css">
	.st0{fill-rule:evenodd;clip-rule:evenodd;fill:#FFFFFF;stroke:#FFC817;stroke-miterlimit:10;}
</style>
<path class="st0" d="M180.7,42.9c-0.2,17.7,13.9,27.5,24.5,33.4c10.9,6,14.6,9.9,14.5,15.3c-0.1,8.2-8.7,11.9-16.8,12
	c-14.1,0.2-22.3-4.3-28.8-7.8l-5.1,26.9c6.5,3.4,18.6,6.4,31.2,6.5c29.4,0,48.7-16.5,48.8-42c0.1-32.4-39.6-34.2-39.3-48.7
	c0.1-4.4,3.8-9.1,11.9-10.3c4-0.6,15.1-1.1,27.6,5.5l4.9-26C247.5,5,238.8,2.3,228,2.3C200.3,2.3,180.8,19,180.7,42.9 M301.6,4.6
	c-5.4,0-9.9,3.6-11.9,9l-42.1,113.7h29.4l5.9-18.3h36l3.4,18.3h25.9L325.6,4.6H301.6z M305.8,37.7l8.5,46.1H291L305.8,37.7z
	 M145,4.6l-23.2,122.7h28L173,4.6H145z M103.5,4.6L74.3,88.1l-11.8-71C61.1,9.1,55.7,4.6,49.6,4.6H1.9L1.2,8.1
	c9.8,2.4,20.9,6.3,27.7,10.4c4.1,2.5,5.3,4.8,6.7,10.8l22.4,97.9h29.6L133,4.6H103.5z"/>
</svg>
