<?xml version="1.0" encoding="utf-8"?>
<!-- Generator: Adobe Illustrator 25.3.1, SVG Export Plug-In . SVG Version: 6.00 Build 0)  -->
<svg version="1.1"
	 id="svg2816" xmlns:cc="http://creativecommons.org/ns#" xmlns:dc="http://purl.org/dc/elements/1.1/" xmlns:inkscape="http://www.inkscape.org/namespaces/inkscape" xmlns:rdf="http://www.w3.org/1999/02/22-rdf-syntax-ns#" xmlns:sodipodi="http://sodipodi.sourceforge.net/DTD/sodipodi-0.dtd" xmlns:svg="http://www.w3.org/2000/svg"
	 xmlns="http://www.w3.org/2000/svg" xmlns:xlink="http://www.w3.org/1999/xlink" x="0px" y="0px" viewBox="0 0 348.6 358"
	 style="enable-background:new 0 0 348.6 358;" xml:space="preserve">
<style type="text/css">
	.st0{fill:#FFFFFF;}
</style>
<defs>
	
		<inkscape:perspective  id="perspective2824" inkscape:persp3d-origin="0.5 : 0.33333333 : 1" inkscape:vp_x="0 : 0.5 : 1" inkscape:vp_y="0 : 1000 : 0" inkscape:vp_z="1 : 0.5 : 1" sodipodi:type="inkscape:persp3d">
		</inkscape:perspective>
</defs>
<sodipodi:namedview  bordercolor="#666666" borderopacity="1" gridtolerance="10" guidetolerance="10" id="namedview2818" inkscape:current-layer="svg2816" inkscape:cx="288.9475" inkscape:cy="215.92016" inkscape:pageopacity="0" inkscape:pageshadow="2" inkscape:window-height="520" inkscape:window-maximized="1" inkscape:window-width="1024" inkscape:window-x="-4" inkscape:window-y="-4" inkscape:zoom="1.489975" objecttolerance="10" pagecolor="#ffffff" showgrid="false">
	</sodipodi:namedview>
<path class="st0" d="M5.9,236c1.8,5,7.7,10.7,12.9,12.5c11.3,3.8,22.2-0.5,31.9-12.7c27.5-34.5,27.5-81,0-115.9
	c-9.5-12-16.6-15.8-26.9-14.2c-12.2,1.9-21.3,12.7-18,21.5c0.8,2.1,4.2,7.6,7.6,12.1c10,13.4,12.4,20.6,12.4,38.1
	c0,17.5-2.3,24.7-12.4,38.1C5.6,226,4,230.4,5.9,236z"/>
<path class="st0" d="M84.6,267.9c1.5,5.7,7.2,11.3,13.8,13.7c2.9,1.1,7.9,1.7,11,1.3c10.2-1.1,15.2-5.5,25.4-22.3
	c17.7-29.2,24.1-50.9,24.2-82.5c0.1-30.8-6.7-54.8-23.4-82.4c-10.8-18-17.1-22.9-29.1-22.9c-7.2,0-9.4,0.7-14.5,4.6
	c-10.4,8-10.1,12,2.2,32.1c28,45.9,27.7,91.2-0.9,138.2C85.3,260.6,83.7,264.5,84.6,267.9z"/>
<path class="st0" d="M250.8,337.6c1.5,6.4,8.5,13.1,15.4,14.7c3,0.7,6.5,1,7.8,0.7c1.3-0.3,3.4-0.6,4.6-0.6c6.4,0,14-8.4,26.2-28.8
	c20.1-33.7,32.7-68.2,38.9-106.8c3.4-20.9,2.5-64.2-1.7-87.1c-6.9-36.9-20.8-72.4-41.1-104.8c-5.1-8.2-11.2-16.3-13.6-18.1
	c-6.1-4.7-18.9-5.4-26.6-1.5C255.2,8.2,250,15.4,250,20.4c0,1.4,5,10.7,11.1,20.8c28.4,46.9,39.8,86,39.8,136.3
	c0,52-12.9,94.9-42.6,141.5C251,330.5,249.8,333.4,250.8,337.6z"/>
<path class="st0" d="M168.3,296.2c-3.1,7.9,4.6,18.5,15.2,21c15.8,3.7,27-5.7,42.9-36C257.5,222,261.2,157.3,237,97.1
	c-7.3-18.2-26.3-50.4-32.4-54.9c-8.8-6.6-25.6-5.3-32.3,2.4c-7.1,8.1-6.5,11.2,5.6,31.4c18.1,30,25.3,50.5,29.1,83.1
	c4.6,39.6-4.8,79.9-27.6,117.5C174.1,285.4,169.1,294.3,168.3,296.2z"/>
</svg>
